# MagicaVoxel @ Ephtracy

# group
o 

# material
mtllib 1B.mtl
usemtl palette

# normals
vn -1 0 0
vn 1 0 0
vn 0 0 1
vn 0 0 -1
vn 0 -1 0
vn 0 1 0

# texcoords
vt 0.197266 0.5
vt 0.958984 0.5
vt 0.962891 0.5

# verts
v -0.8 1.4 0.2
v -0.8 1.4 -0.2
v -0.8 2.3 0.2
v -0.8 2.3 -0.2
v -0.8 2.6 0.2
v -0.8 2.6 -0.2
v 0.1 1.4 0.2
v 0.1 1.4 -0.2
v 0.1 2.3 0.2
v 0.1 2.3 -0.2
v 0.1 2.6 0.2
v 0.1 2.6 -0.2
v -0.8 1.4 0.2
v -0.8 2.3 0.2
v -0.8 2.6 0.2
v -0.7 1.8 0.2
v -0.7 1.9 0.2
v -0.7 2.3 0.2
v -0.7 2.6 0.2
v -0.6 1.8 0.2
v -0.6 1.9 0.2
v -0.6 2 0.2
v -0.6 2.3 0.2
v -0.6 2.6 0.2
v -0.1 1.8 0.2
v -0.1 1.9 0.2
v -0.1 2 0.2
v -0.1 2.3 0.2
v -0.1 2.6 0.2
v 5.96046e-008 1.8 0.2
v 5.96046e-008 1.9 0.2
v 5.96046e-008 2.3 0.2
v 5.96046e-008 2.6 0.2
v 0.1 1.4 0.2
v 0.1 2.3 0.2
v 0.1 2.6 0.2
v -0.8 1.4 -0.2
v -0.8 2.3 -0.2
v -0.8 2.6 -0.2
v -0.7 2.3 -0.2
v -0.7 2.6 -0.2
v -0.6 2.3 -0.2
v -0.6 2.6 -0.2
v -0.1 2.3 -0.2
v -0.1 2.6 -0.2
v 5.96046e-008 2.3 -0.2
v 5.96046e-008 2.6 -0.2
v 0.1 1.4 -0.2
v 0.1 2.3 -0.2
v 0.1 2.6 -0.2
v -0.8 1.4 0.2
v 0.1 1.4 0.2
v -0.8 1.4 -0.2
v 0.1 1.4 -0.2
v -0.8 2.6 0.2
v -0.7 2.6 0.2
v -0.6 2.6 0.2
v -0.1 2.6 0.2
v 5.96046e-008 2.6 0.2
v 0.1 2.6 0.2
v -0.8 2.6 -0.2
v -0.7 2.6 -0.2
v -0.6 2.6 -0.2
v -0.1 2.6 -0.2
v 5.96046e-008 2.6 -0.2
v 0.1 2.6 -0.2

# faces
f 3/2/1 2/2/1 1/2/1
f 4/2/1 2/2/1 3/2/1
f 5/1/1 4/1/1 3/1/1
f 6/1/1 4/1/1 5/1/1
f 7/2/2 8/2/2 9/2/2
f 9/2/2 8/2/2 10/2/2
f 9/1/2 10/1/2 11/1/2
f 11/1/2 10/1/2 12/1/2
f 16/2/3 14/2/3 13/2/3
f 17/2/3 14/2/3 16/2/3
f 18/1/3 15/1/3 14/1/3
f 18/2/3 14/2/3 17/2/3
f 19/1/3 15/1/3 18/1/3
f 20/3/3 17/3/3 16/3/3
f 20/2/3 16/2/3 13/2/3
f 21/2/3 19/2/3 18/2/3
f 21/3/3 17/3/3 20/3/3
f 21/2/3 18/2/3 17/2/3
f 22/2/3 19/2/3 21/2/3
f 23/2/3 19/2/3 22/2/3
f 24/2/3 19/2/3 23/2/3
f 25/2/3 20/2/3 13/2/3
f 25/2/3 21/2/3 20/2/3
f 26/3/3 22/3/3 21/3/3
f 26/2/3 21/2/3 25/2/3
f 27/2/3 23/2/3 22/2/3
f 27/3/3 22/3/3 26/3/3
f 28/1/3 24/1/3 23/1/3
f 28/2/3 23/2/3 27/2/3
f 29/1/3 24/1/3 28/1/3
f 30/2/3 25/2/3 13/2/3
f 30/3/3 26/3/3 25/3/3
f 31/2/3 27/2/3 26/2/3
f 31/3/3 26/3/3 30/3/3
f 31/2/3 29/2/3 28/2/3
f 31/2/3 28/2/3 27/2/3
f 32/2/3 29/2/3 31/2/3
f 33/2/3 29/2/3 32/2/3
f 34/2/3 30/2/3 13/2/3
f 34/2/3 31/2/3 30/2/3
f 34/2/3 32/2/3 31/2/3
f 35/1/3 33/1/3 32/1/3
f 35/2/3 32/2/3 34/2/3
f 36/1/3 33/1/3 35/1/3
f 37/2/4 38/2/4 40/2/4
f 38/1/4 39/1/4 40/1/4
f 40/1/4 39/1/4 41/1/4
f 37/2/4 40/2/4 42/2/4
f 40/2/4 41/2/4 42/2/4
f 42/2/4 41/2/4 43/2/4
f 37/2/4 42/2/4 44/2/4
f 42/1/4 43/1/4 44/1/4
f 44/1/4 43/1/4 45/1/4
f 37/2/4 44/2/4 46/2/4
f 44/2/4 45/2/4 46/2/4
f 46/2/4 45/2/4 47/2/4
f 37/2/4 46/2/4 48/2/4
f 46/1/4 47/1/4 49/1/4
f 48/2/4 46/2/4 49/2/4
f 49/1/4 47/1/4 50/1/4
f 53/2/5 52/2/5 51/2/5
f 54/2/5 52/2/5 53/2/5
f 55/1/6 56/1/6 61/1/6
f 56/2/6 57/2/6 62/2/6
f 61/1/6 56/1/6 62/1/6
f 57/1/6 58/1/6 63/1/6
f 62/2/6 57/2/6 63/2/6
f 58/2/6 59/2/6 64/2/6
f 63/1/6 58/1/6 64/1/6
f 59/1/6 60/1/6 65/1/6
f 64/2/6 59/2/6 65/2/6
f 65/1/6 60/1/6 66/1/6
