# MagicaVoxel @ Ephtracy

# group
o 

# material
mtllib 1LL.mtl
usemtl palette

# normals
vn -1 0 0
vn 1 0 0
vn 0 0 1
vn 0 0 -1
vn 0 -1 0
vn 0 1 0

# texcoords
vt 0.197266 0.5
vt 0.775391 0.5
vt 0.791016 0.5
vt 0.798828 0.5

# verts
v -0.0999999 0 0.2
v -0.0999999 0 -0.2
v -0.0999999 0.2 0.2
v -0.0999999 0.2 -0.2
v -0.0999999 1.1 0.2
v -0.0999999 1.1 -0.2
v 0.3 0 0.2
v 0.3 0 -0.2
v 0.3 0.2 0.2
v 0.3 0.2 -0.2
v 0.3 0.8 -5.96046e-008
v 0.3 0.8 -0.1
v 0.3 0.9 0.0999999
v 0.3 0.9 -5.96046e-008
v 0.3 0.9 -0.1
v 0.3 1 0.0999999
v 0.3 1 -5.96046e-008
v 0.3 1.1 0.2
v 0.3 1.1 -0.2
v -0.0999999 0 0.2
v -0.0999999 0.2 0.2
v -0.0999999 1.1 0.2
v 7.45058e-008 0.2 0.2
v 7.45058e-008 0.4 0.2
v 7.45058e-008 0.5 0.2
v 7.45058e-008 0.7 0.2
v 7.45058e-008 0.9 0.2
v 0.1 0.2 0.2
v 0.1 0.3 0.2
v 0.1 0.4 0.2
v 0.1 0.5 0.2
v 0.1 0.7 0.2
v 0.1 0.9 0.2
v 0.1 1 0.2
v 0.2 0.3 0.2
v 0.2 0.4 0.2
v 0.2 0.7 0.2
v 0.2 1 0.2
v 0.3 0 0.2
v 0.3 0.2 0.2
v 0.3 1.1 0.2
v -0.0999999 0 -0.2
v -0.0999999 0.2 -0.2
v -0.0999999 1.1 -0.2
v 7.45058e-008 0.2 -0.2
v 7.45058e-008 0.3 -0.2
v 7.45058e-008 0.5 -0.2
v 7.45058e-008 0.9 -0.2
v 7.45058e-008 1 -0.2
v 0.1 0.2 -0.2
v 0.1 0.3 -0.2
v 0.1 0.5 -0.2
v 0.2 0.2 -0.2
v 0.2 0.3 -0.2
v 0.2 0.9 -0.2
v 0.2 1 -0.2
v 0.3 0 -0.2
v 0.3 0.2 -0.2
v 0.3 1.1 -0.2
v -0.0999999 0 0.2
v 0.3 0 0.2
v -0.0999999 0 -0.2
v 0.3 0 -0.2
v -0.0999999 1.1 0.2
v 0.3 1.1 0.2
v -0.0999999 1.1 -0.2
v 0.3 1.1 -0.2

# faces
f 3/1/1 2/1/1 1/1/1
f 4/1/1 2/1/1 3/1/1
f 5/2/1 4/2/1 3/2/1
f 6/2/1 4/2/1 5/2/1
f 7/1/2 8/1/2 9/1/2
f 9/1/2 8/1/2 10/1/2
f 9/2/2 10/2/2 11/2/2
f 11/2/2 10/2/2 12/2/2
f 9/2/2 11/2/2 13/2/2
f 11/4/2 12/4/2 14/4/2
f 13/2/2 11/2/2 14/2/2
f 12/2/2 10/2/2 15/2/2
f 14/4/2 12/4/2 15/4/2
f 13/4/2 14/4/2 16/4/2
f 9/2/2 13/2/2 16/2/2
f 14/2/2 15/2/2 17/2/2
f 16/4/2 14/4/2 17/4/2
f 9/2/2 16/2/2 18/2/2
f 16/2/2 17/2/2 18/2/2
f 15/2/2 10/2/2 19/2/2
f 18/2/2 17/2/2 19/2/2
f 17/2/2 15/2/2 19/2/2
f 23/1/3 21/1/3 20/1/3
f 23/2/3 22/2/3 21/2/3
f 24/2/3 22/2/3 23/2/3
f 25/2/3 22/2/3 24/2/3
f 26/2/3 22/2/3 25/2/3
f 27/2/3 22/2/3 26/2/3
f 28/1/3 23/1/3 20/1/3
f 28/1/3 24/1/3 23/1/3
f 29/1/3 24/1/3 28/1/3
f 30/3/3 25/3/3 24/3/3
f 30/1/3 24/1/3 29/1/3
f 31/2/3 26/2/3 25/2/3
f 31/3/3 25/3/3 30/3/3
f 32/3/3 27/3/3 26/3/3
f 32/2/3 26/2/3 31/2/3
f 33/2/3 22/2/3 27/2/3
f 33/3/3 27/3/3 32/3/3
f 34/2/3 22/2/3 33/2/3
f 35/2/3 29/2/3 28/2/3
f 35/3/3 30/3/3 29/3/3
f 36/2/3 32/2/3 31/2/3
f 36/3/3 30/3/3 35/3/3
f 36/2/3 31/2/3 30/2/3
f 37/1/3 33/1/3 32/1/3
f 37/2/3 32/2/3 36/2/3
f 37/1/3 34/1/3 33/1/3
f 38/2/3 22/2/3 34/2/3
f 38/1/3 34/1/3 37/1/3
f 39/1/3 28/1/3 20/1/3
f 40/2/3 35/2/3 28/2/3
f 40/1/3 28/1/3 39/1/3
f 40/2/3 36/2/3 35/2/3
f 40/2/3 38/2/3 37/2/3
f 40/2/3 37/2/3 36/2/3
f 41/2/3 22/2/3 38/2/3
f 41/2/3 38/2/3 40/2/3
f 42/1/4 43/1/4 45/1/4
f 43/2/4 44/2/4 45/2/4
f 45/2/4 44/2/4 46/2/4
f 46/2/4 44/2/4 47/2/4
f 47/2/4 44/2/4 48/2/4
f 48/2/4 44/2/4 49/2/4
f 42/1/4 45/1/4 50/1/4
f 45/1/4 46/1/4 50/1/4
f 46/3/4 47/3/4 51/3/4
f 50/1/4 46/1/4 51/1/4
f 47/2/4 48/2/4 52/2/4
f 51/3/4 47/3/4 52/3/4
f 42/1/4 50/1/4 53/1/4
f 50/3/4 51/3/4 53/3/4
f 51/2/4 52/2/4 54/2/4
f 53/3/4 51/3/4 54/3/4
f 48/4/4 49/4/4 55/4/4
f 54/2/4 52/2/4 55/2/4
f 52/2/4 48/2/4 55/2/4
f 49/2/4 44/2/4 56/2/4
f 55/4/4 49/4/4 56/4/4
f 42/1/4 53/1/4 57/1/4
f 54/2/4 55/2/4 58/2/4
f 57/1/4 53/1/4 58/1/4
f 53/2/4 54/2/4 58/2/4
f 55/2/4 56/2/4 58/2/4
f 56/2/4 44/2/4 59/2/4
f 58/2/4 56/2/4 59/2/4
f 62/1/5 61/1/5 60/1/5
f 63/1/5 61/1/5 62/1/5
f 64/2/6 65/2/6 66/2/6
f 66/2/6 65/2/6 67/2/6
