# MagicaVoxel @ Ephtracy

# group
o 

# material
mtllib 2LR.mtl
usemtl palette

# normals
vn -1 0 0
vn 1 0 0
vn 0 0 1
vn 0 0 -1
vn 0 -1 0
vn 0 1 0

# texcoords
vt 0.568359 0.5
vt 0.572266 0.5
vt 0.955078 0.5

# verts
v -1 0 0.2
v -1 0 -0.2
v -1 0.2 0.2
v -1 0.2 -0.2
v -1 0.8 0.0999999
v -1 0.8 -0.1
v -1 0.9 -5.96046e-008
v -1 0.9 -0.1
v -1 1 0.0999999
v -1 1 -5.96046e-008
v -1 1.1 0.2
v -1 1.1 -0.2
v -0.6 0 0.2
v -0.6 0 -0.2
v -0.6 0.2 0.2
v -0.6 0.2 -0.2
v -0.6 1.1 0.2
v -0.6 1.1 -0.2
v -1 0 0.2
v -1 0.2 0.2
v -1 1.1 0.2
v -0.9 0.5 0.2
v -0.9 0.8 0.2
v -0.7 0.5 0.2
v -0.7 0.8 0.2
v -0.6 0 0.2
v -0.6 0.2 0.2
v -0.6 1.1 0.2
v -1 0 -0.2
v -1 0.2 -0.2
v -1 1.1 -0.2
v -0.6 0 -0.2
v -0.6 0.2 -0.2
v -0.6 1.1 -0.2
v -1 0 0.2
v -0.6 0 0.2
v -1 0 -0.2
v -0.6 0 -0.2
v -1 1.1 0.2
v -0.6 1.1 0.2
v -1 1.1 -0.2
v -0.6 1.1 -0.2

# faces
f 3/3/1 2/3/1 1/3/1
f 4/3/1 2/3/1 3/3/1
f 5/2/1 4/2/1 3/2/1
f 6/2/1 4/2/1 5/2/1
f 7/1/1 6/1/1 5/1/1
f 8/2/1 4/2/1 6/2/1
f 8/1/1 6/1/1 7/1/1
f 9/2/1 5/2/1 3/2/1
f 9/1/1 7/1/1 5/1/1
f 10/2/1 8/2/1 7/2/1
f 10/1/1 7/1/1 9/1/1
f 11/2/1 9/2/1 3/2/1
f 11/2/1 10/2/1 9/2/1
f 12/2/1 4/2/1 8/2/1
f 12/2/1 10/2/1 11/2/1
f 12/2/1 8/2/1 10/2/1
f 13/3/2 14/3/2 15/3/2
f 15/3/2 14/3/2 16/3/2
f 15/2/2 16/2/2 17/2/2
f 17/2/2 16/2/2 18/2/2
f 22/2/3 21/2/3 20/2/3
f 23/2/3 21/2/3 22/2/3
f 24/2/3 22/2/3 20/2/3
f 24/1/3 23/1/3 22/1/3
f 25/2/3 21/2/3 23/2/3
f 25/1/3 23/1/3 24/1/3
f 26/3/3 20/3/3 19/3/3
f 27/2/3 24/2/3 20/2/3
f 27/3/3 20/3/3 26/3/3
f 27/2/3 25/2/3 24/2/3
f 28/2/3 21/2/3 25/2/3
f 28/2/3 25/2/3 27/2/3
f 29/3/4 30/3/4 32/3/4
f 30/2/4 31/2/4 33/2/4
f 32/3/4 30/3/4 33/3/4
f 33/2/4 31/2/4 34/2/4
f 37/3/5 36/3/5 35/3/5
f 38/3/5 36/3/5 37/3/5
f 39/2/6 40/2/6 41/2/6
f 41/2/6 40/2/6 42/2/6
